<svg xmlns="http://www.w3.org/2000/svg" version="1.1" xmlns:xlink="http://www.w3.org/1999/xlink" width="24" height="24"><svg width="24" height="24" viewBox="0 0 24 24" fill="none" xmlns="http://www.w3.org/2000/svg">
  <path d="M20 13.0004C20 18.0004 16.5 20.5005 12.34 21.9505C12.1222 22.0243 11.8855 22.0207 11.67 21.9405C7.5 20.5005 4 18.0004 4 13.0004V6.00045C4 5.73523 4.10536 5.48088 4.29289 5.29334C4.48043 5.10581 4.73478 5.00045 5 5.00045C7 5.00045 9.5 3.80045 11.24 2.28045C11.4519 2.09945 11.7214 2 12 2C12.2786 2 12.5481 2.09945 12.76 2.28045C14.51 3.81045 17 5.00045 19 5.00045C19.2652 5.00045 19.5196 5.10581 19.7071 5.29334C19.8946 5.48088 20 5.73523 20 6.00045V13.0004Z" fill="#03A63F" stroke="#03A63F" stroke-width="2" stroke-linecap="round" stroke-linejoin="round"></path>
  <path d="M16 13H8C7.44772 13 7 13.4477 7 14V16C7 16.5523 7.44772 17 8 17H16C16.5523 17 17 16.5523 17 16V14C17 13.4477 16.5523 13 16 13Z" stroke="white" stroke-opacity="0.84" stroke-width="1.3" stroke-linecap="round" stroke-linejoin="round"></path>
  <path d="M9 15H9.005" stroke="white" stroke-opacity="0.84" stroke-linecap="round" stroke-linejoin="round"></path>
  <path d="M16 7H8C7.44772 7 7 7.44772 7 8V10C7 10.5523 7.44772 11 8 11H16C16.5523 11 17 10.5523 17 10V8C17 7.44772 16.5523 7 16 7Z" stroke="white" stroke-opacity="0.84" stroke-width="1.3" stroke-linecap="round" stroke-linejoin="round"></path>
  <path d="M9 9H9.005" stroke="white" stroke-opacity="0.84" stroke-linecap="round" stroke-linejoin="round"></path>
  <path d="M11 15H11.005" stroke="white" stroke-opacity="0.84" stroke-linecap="round" stroke-linejoin="round"></path>
  <path d="M11 9H11.005" stroke="white" stroke-opacity="0.84" stroke-linecap="round" stroke-linejoin="round"></path>
  </svg><style>@media (prefers-color-scheme: light) { :root { filter: none; } }
@media (prefers-color-scheme: dark) { :root { filter: none; } }
</style></svg>
